<svg id="bottom_logo_7" xmlns="http://www.w3.org/2000/svg" width="37.12" height="37" viewBox="0 0 37.12 37">
  <metadata><?xpacket begin="﻿" id="W5M0MpCehiHzreSzNTczkc9d"?>
<x:xmpmeta xmlns:x="adobe:ns:meta/" x:xmptk="Adobe XMP Core 5.6-c138 79.159824, 2016/09/14-01:09:01        ">
   <rdf:RDF xmlns:rdf="http://www.w3.org/1999/02/22-rdf-syntax-ns#">
      <rdf:Description rdf:about=""/>
   </rdf:RDF>
</x:xmpmeta>
                                                                                                    
                                                                                                    
                                                                                                    
                                                                                                    
                                                                                                    
                                                                                                    
                                                                                                    
                                                                                                    
                                                                                                    
                                                                                                    
                                                                                                    
                                                                                                    
                                                                                                    
                                                                                                    
                                                                                                    
                                                                                                    
                                                                                                    
                                                                                                    
                                                                                                    
                                                                                                    
                           
<?xpacket end="w"?></metadata>
<defs>
    <style>
      .cls-1 {
        fill: none;
        stroke: #8790ac;
        stroke-width: 1px;
        opacity: 0.48;
      }

      .cls-2 {
        fill: #8790ac;
        fill-rule: evenodd;
      }
    </style>
  </defs>
  <circle id="椭圆_3_拷贝" data-name="椭圆 3 拷贝" class="cls-1" cx="18.56" cy="18.5" r="18.06"/>
  <path id="形状_837" data-name="形状 837" class="cls-2" d="M2901.19,757.379a4.323,4.323,0,0,0,1.92-3.591,4.211,4.211,0,0,0-4.16-4.264h-1.09v-1.852a0.24,0.24,0,0,0-.22-0.224h-0.83a0.239,0.239,0,0,0-.21.224v1.908h-2.85v-1.908a0.24,0.24,0,0,0-.22-0.224h-0.82a0.24,0.24,0,0,0-.22.224v1.908h-4.05a1.459,1.459,0,0,0-1.48,1.515,1.491,1.491,0,0,0,.99,1.4v9.763a1.579,1.579,0,0,0-.99,1.4,1.493,1.493,0,0,0,1.48,1.515h4.11v1.908a0.23,0.23,0,0,0,.21.224h0.83a0.238,0.238,0,0,0,.21-0.224v-1.908h2.85v1.908a0.239,0.239,0,0,0,.22.224h0.82a0.239,0.239,0,0,0,.22-0.224v-1.908H2899a4.219,4.219,0,0,0,4.17-4.264A4.565,4.565,0,0,0,2901.19,757.379Zm-2.13,2.188a1.609,1.609,0,0,1-1.59,1.628h-4.76l-0.93,1.29a0.385,0.385,0,0,1-.71-0.224V754.63a1.606,1.606,0,0,1,1.58-1.627h4.82a1.608,1.608,0,0,1,1.59,1.627v4.937Zm-3.12-2.412a0.6,0.6,0,1,0,.6-0.617A0.609,0.609,0,0,0,2895.94,757.155Zm-3.01,0a0.6,0.6,0,1,0,.6-0.617A0.609,0.609,0,0,0,2892.93,757.155Z" transform="translate(-2876.5 -739.5)"/>
</svg>
